<svg width="512" height="512" xmlns="http://www.w3.org/2000/svg">
    <defs>
        <symbol id="fb" viewBox="0 0 512 512">
            <title>Facebook</title>
            <path fill="#f9f8f8" id="svg_1" d="m255.022,511.998l0.229,0.001l-0.079,0l-0.15,-0.001zm1.806,0.001l-0.079,0l0.229,-0.001l-0.15,0.001zm-2.588,-0.005l0.247,0.001l-0.142,0l-0.105,-0.001zm3.415,0.001l-0.142,0l0.247,-0.001l-0.105,0.001zm-4.169,-0.007l0.165,0.001l-0.132,-0.001l-0.033,0zm4.995,0l-0.132,0.001l0.165,-0.001l-0.033,0zm0.826,-0.009l-0.058,0.001l0.223,-0.003l-0.165,0.002zm-6.779,-0.002l0.223,0.003l-0.058,-0.001l-0.165,-0.002zm7.604,-0.01l-0.135,0.002l0.275,-0.004l-0.14,0.002zm-8.404,-0.002l0.275,0.004l-0.135,-0.002l-0.14,-0.002zm9.228,-0.012l-0.182,0.003l0.254,-0.005l-0.072,0.002zm-9.984,-0.002l0.254,0.005l-0.182,-0.003l-0.072,-0.002zm-0.937,-0.019l0.225,0.005l-0.04,-0.001l-0.185,-0.004zm11.745,0.004l-0.04,0.001l0.225,-0.005l-0.185,0.004zm-12.567,-0.025l0.309,0.008l-0.125,-0.003l-0.184,-0.005zm13.39,0.005l-0.125,0.003l0.309,-0.008l-0.184,0.005zm0.823,-0.022l-0.201,0.006l0.316,-0.009l-0.115,0.003zm-14.967,-0.003l0.316,0.009l-0.201,-0.006l-0.115,-0.003zm-0.72,-0.022l0.225,0.007l-0.212,-0.007l-0.194,-0.006l0.181,0.006zm16.509,0l-0.212,0.007l0.225,-0.007l0.181,-0.006l-0.194,0.006zm0.821,-0.027l-0.112,0.004l0.345,-0.012l-0.233,0.008zm-18.371,-0.008l0.345,0.012l-0.112,-0.004l-0.233,-0.008zm-0.749,-0.028l0.362,0.013l-0.201,-0.007l-0.161,-0.006zm19.941,0.006l-0.201,0.007l0.362,-0.013l-0.161,0.006zm-20.676,-0.036l0.354,0.015l-0.277,-0.011l-0.077,-0.004zm21.495,0.004l-0.277,0.011l0.354,-0.015l-0.077,0.004zm-22.525,-0.049l0.38,0.017l-0.093,-0.003l-0.287,-0.014zm23.345,0.014l-0.093,0.003l0.38,-0.017l-0.287,0.014zm-24.084,-0.048l0.394,0.018l-0.186,-0.008l-0.208,-0.01zm24.902,0.01l-0.186,0.008l0.394,-0.018l-0.208,0.01zm-25.63,-0.047l0.397,0.02l-0.279,-0.013l-0.118,-0.007zm26.448,0.007l-0.279,0.013l0.397,-0.02l-0.118,0.007zm0.818,-0.043l-0.362,0.019l0.321,-0.017l0.378,-0.021l-0.337,0.019zm-27.925,0.002l0.321,0.017l-0.362,-0.019l-0.337,-0.019l0.378,0.021zm28.741,-0.048l-0.16,0.009l0.406,-0.023l-0.246,0.014zm-29.844,-0.014l0.406,0.023l-0.16,-0.009l-0.246,-0.014zm-0.722,-0.043l0.405,0.024l-0.253,-0.014l-0.152,-0.01zm31.382,0.01l-0.253,0.014l0.405,-0.024l-0.152,0.01zm-32.071,-0.053l0.365,0.023l-0.34,-0.021l-0.342,-0.022l0.317,0.02zm32.887,0.002l-0.34,0.021l0.365,-0.023l0.317,-0.02l-0.342,0.022zm0.814,-0.053l-0.122,0.008l0.387,-0.026l-0.265,0.018zm-34.755,-0.018l0.387,0.026l-0.122,-0.008l-0.265,-0.018zm-0.721,-0.05l0.38,0.027l-0.208,-0.014l-0.172,-0.013zm36.29,0.013l-0.208,0.014l0.38,-0.027l-0.172,0.013zm-37.009,-0.064l0.349,0.025l-0.271,-0.019l-0.078,-0.006zm37.822,0.006l-0.271,0.019l0.349,-0.025l-0.078,0.006zm-38.789,-0.079l0.306,0.023l-0.074,-0.005l-0.232,-0.018zm39.602,0.018l-0.074,0.005l0.306,-0.023l-0.232,0.018zm0.811,-0.063l-0.146,0.011l0.311,-0.025l-0.165,0.014zm-41.157,-0.014l0.311,0.025l-0.146,-0.011l-0.165,-0.014zm-0.725,-0.059l0.264,0.022l-0.186,-0.015l-0.078,-0.007zm42.694,0.007l-0.186,0.015l0.264,-0.022l-0.078,0.007zm-43.492,-0.074l0.079,0.007l-0.013,-0.001l-0.066,-0.006zm44.302,0.006l-0.013,0.001l0.079,-0.007l-0.066,0.006zm0.81,-0.071l-0.072,0.006l0.181,-0.016l-0.109,0.01zm-45.965,-0.01l0.181,0.016l-0.072,-0.006l-0.109,-0.01zm-0.75,-0.068l0.135,0.013l-0.084,-0.008l-0.051,-0.005zm47.523,0.005l-0.084,0.008l0.135,-0.013l-0.051,0.005zm-63.736,-2.025c-122.319,-19.226 -216,-125.203 -216,-252.887c0,-141.29 114.71,-256 256,-256c141.29,0 256,114.71 256,256c0,127.684 -93.681,233.661 -216,252.887l0,-178.887l59.65,0l11.35,-74l-71,0l0,-48.021c0,-20.245 9.918,-39.979 41.719,-39.979l32.281,0l0,-63c0,0 -29.296,-5 -57.305,-5c-58.476,0 -96.695,35.44 -96.695,99.6l0,56.4l-65,0l0,74l65,0l0,178.887z"/>
        </symbol>

        <symbol id="ig" viewBox="0 0 512 512">
            <title>Instagram</title>
            <path fill="#f9f8f8" id="svg_1" d="m256.414776,0c141.29,0 256,114.71 256,256c0,141.29 -114.71,256 -256,256c-141.29,0 -256,-114.71 -256,-256c0,-141.29 114.71,-256 256,-256zm0,96c-43.453,0 -48.902,0.184 -65.968,0.963c-17.03,0.777 -28.661,3.482 -38.839,7.437c-10.521,4.089 -19.444,9.56 -28.339,18.455c-8.895,8.895 -14.366,17.818 -18.455,28.339c-3.955,10.177 -6.659,21.808 -7.437,38.838c-0.778,17.066 -0.962,22.515 -0.962,65.968c0,43.453 0.184,48.902 0.962,65.968c0.778,17.03 3.482,28.661 7.437,38.838c4.089,10.521 9.56,19.444 18.455,28.34c8.895,8.895 17.818,14.366 28.339,18.455c10.178,3.954 21.809,6.659 38.839,7.436c17.066,0.779 22.515,0.963 65.968,0.963c43.453,0 48.902,-0.184 65.968,-0.963c17.03,-0.777 28.661,-3.482 38.838,-7.436c10.521,-4.089 19.444,-9.56 28.34,-18.455c8.895,-8.896 14.366,-17.819 18.455,-28.34c3.954,-10.177 6.659,-21.808 7.436,-38.838c0.779,-17.066 0.963,-22.515 0.963,-65.968c0,-43.453 -0.184,-48.902 -0.963,-65.968c-0.777,-17.03 -3.482,-28.661 -7.436,-38.838c-4.089,-10.521 -9.56,-19.444 -18.455,-28.339c-8.896,-8.895 -17.819,-14.366 -28.34,-18.455c-10.177,-3.955 -21.808,-6.66 -38.838,-7.437c-17.066,-0.779 -22.515,-0.963 -65.968,-0.963zm0,28.829c42.722,0 47.782,0.163 64.654,0.933c15.6,0.712 24.071,3.318 29.709,5.509c7.469,2.902 12.799,6.37 18.397,11.969c5.6,5.598 9.067,10.929 11.969,18.397c2.191,5.638 4.798,14.109 5.509,29.709c0.77,16.872 0.933,21.932 0.933,64.654c0,42.722 -0.163,47.782 -0.933,64.654c-0.711,15.6 -3.318,24.071 -5.509,29.709c-2.902,7.469 -6.369,12.799 -11.969,18.397c-5.598,5.6 -10.928,9.067 -18.397,11.969c-5.638,2.191 -14.109,4.798 -29.709,5.509c-16.869,0.77 -21.929,0.933 -64.654,0.933c-42.725,0 -47.784,-0.163 -64.654,-0.933c-15.6,-0.711 -24.071,-3.318 -29.709,-5.509c-7.469,-2.902 -12.799,-6.369 -18.398,-11.969c-5.599,-5.598 -9.066,-10.928 -11.968,-18.397c-2.191,-5.638 -4.798,-14.109 -5.51,-29.709c-0.77,-16.872 -0.932,-21.932 -0.932,-64.654c0,-42.722 0.162,-47.782 0.932,-64.654c0.712,-15.6 3.319,-24.071 5.51,-29.709c2.902,-7.468 6.369,-12.799 11.968,-18.397c5.599,-5.599 10.929,-9.067 18.398,-11.969c5.638,-2.191 14.109,-4.797 29.709,-5.509c16.872,-0.77 21.932,-0.933 64.654,-0.933zm0,49.009c-45.377,0 -82.162,36.785 -82.162,82.162c0,45.377 36.785,82.162 82.162,82.162c45.377,0 82.162,-36.785 82.162,-82.162c0,-45.377 -36.785,-82.162 -82.162,-82.162zm0,135.495c-29.455,0 -53.333,-23.878 -53.333,-53.333c0,-29.455 23.878,-53.333 53.333,-53.333c29.455,0 53.333,23.878 53.333,53.333c0,29.455 -23.878,53.333 -53.333,53.333zm104.609,-138.741c0,10.604 -8.597,19.199 -19.201,19.199c-10.603,0 -19.199,-8.595 -19.199,-19.199c0,-10.604 8.596,-19.2 19.199,-19.2c10.604,0 19.201,8.596 19.201,19.2z"/>
    </symbol>

        <symbol id="mail" viewBox="0 0 60 60">
            <title>Mail</title>
            <path id="svg_1" fill="#f9f8f8" d="m30,60c16.56854,0 30,-13.43146 30,-30c0,-16.56854 -13.43146,-30 -30,-30c-16.56854,0 -30,13.43146 -30,30c0,16.56854 13.43146,30 30,30z"/>
            <path id="svg_2" fill="#121212" d="m30,33.46154l17.30769,-15l-34.61538,0l17.30769,15zm-4.67482,-1.66049l4.67482,3.83719l4.60158,-3.83719l12.70611,10.89126l-34.61538,0l12.63287,-10.89126zm-13.78672,9.73741l0,-21.92308l12.69231,10.96154l-12.69231,10.96154zm36.92308,0l0,-21.92308l-12.69231,10.96154l12.69231,10.96154z"/>
        </symbol>
    </defs>
</svg>