<?xml version="1.0" standalone="no"?>
<!DOCTYPE svg PUBLIC "-//W3C//DTD SVG 20010904//EN"
 "http://www.w3.org/TR/2001/REC-SVG-20010904/DTD/svg10.dtd">
<svg version="1.0" xmlns="http://www.w3.org/2000/svg"
 width="88.000000pt" height="88.000000pt" viewBox="0 0 88.000000 88.000000"
 preserveAspectRatio="xMidYMid meet">
<metadata>
Created by potrace 1.16, written by Peter Selinger 2001-2019
</metadata>
<g transform="translate(0.000000,88.000000) scale(0.100000,-0.100000)"
fill="#000000" stroke="none">
<path d="M227 652 c-157 -259 -161 -267 -155 -357 8 -114 63 -195 168 -243 51
-24 66 -26 205 -26 131 0 156 3 196 21 89 40 153 124 168 221 14 95 1 130
-131 348 -169 281 -147 260 -196 179 l-40 -67 -42 66 c-23 36 -43 66 -44 66
-2 0 -60 -94 -129 -208z m424 -54 c121 -198 124 -205 127 -269 3 -51 -1 -77
-18 -117 -38 -88 -127 -152 -213 -152 l-42 0 38 31 c77 63 115 172 97 272 -7
37 -35 93 -96 193 l-85 141 32 52 c18 28 33 51 35 51 1 0 58 -91 125 -202z"/>
</g>
</svg>
